<svg xmlns="http://www.w3.org/2000/svg" viewBox="0 0 464.00017 496.02114">
	<defs>
		<style>
			@import url("https://fonts.googleapis.com/css?family=Rubik:400,700");
			.cls-1, .cls-12 {
				fill: #e6e9ed;
			}

			.cls-2 {
				fill: #fff;
			}

			.cls-3 {
				fill: #7aa93f;
			}

			.cls-4 {
				fill: #1d7f74;
			}

			.cls-5 {
				fill: #58339d;
			}

			.cls-6 {
				fill: #de4c1d;
			}

			.cls-7 {
				fill: #1c7f73;
			}

			.cls-8 {
				fill: #78a940;
			}

			.cls-9 {
				fill: #dece33;
			}

			.cls-10 {
				fill: #1b90d0;
			}

			.cls-11, .cls-12 {
				isolation: isolate;
			}

			.cls-12 {
				font-size: 24px;
				font-family: Rubik-Bold, Rubik;
				font-weight: 700;
			}

			.cls-13 {
				fill: #656d78;
			}

			#container-wheel{
				transform:rotate(30deg);
			}
			#container-wheel,#wheel{
				transform-origin: 232.00009px 264.02105px;
			}			
			#pointer,#balls,#names, #parts, #text-result{
				pointer-events: none;
				-webkit-touch-callout: none;
				-webkit-user-select: none;
				-ms-user-select: none;
				user-select: none;
			}
			#pointer{
				transform-origin: 50% 35px;
				transition: transform .1s linear;
			}

			.rotate-left{
				transform: rotate(-7deg);
			}
			.rotate-right{
				transform: rotate(7deg);
			}
		</style>
		
	</defs>
	<g id="container-wheel">
		<g id="wheel">
			<circle class="cls-1" cx="232.00009" cy="264.02105" r="232.00008"/>
			<g id="parts">			
				<circle class="cls-2" cx="232.00009" cy="264.02105" r="86.00003"/>
				<path id="Path" class="cls-3" d="M232.076,345.00009l.1117,128a205.4154,205.4154,0,0,1-103.94437-27.82932L192.0667,334.395l.07993-.08006A79.43009,79.43009,0,0,0,232.076,345.00009Z" transform="translate(-0.00608 -0.97904)"/>
				<path class="cls-4" d="M192.14663,334.31493l-.07993.08006L128.24332,445.17077a206.7959,206.7959,0,0,1-76.22638-76.01353l110.74421-64.0167.08-.00007a79.47625,79.47625,0,0,0,29.30548,29.17446Z" transform="translate(-0.00608 -0.97904)"/>
				<path class="cls-5" d="M162.61127,225.06062l.08007.07993a79.42994,79.42994,0,0,0-10.68517,39.92936l.00007.08-127.92.11163-.08.00007-.00007-.08a206.15851,206.15851,0,0,1,27.74931-103.9443l.08-.00006Z" transform="translate(-0.00608 -0.97904)"/>
				<path class="cls-6" d="M127.849,85.01085,191.94572,195.755a79.90428,79.90428,0,0,0-29.25438,29.38555l-.08007-.07993L51.83549,161.23725l-.08.00006A207.606,207.606,0,0,1,127.849,85.01085Z" transform="translate(-0.00608 -0.97904)"/>
				<path class="cls-5" d="M440.00626,264.89857a206.21891,206.21891,0,0,1-27.82933,103.94437l-110.85584-63.9033a79.43016,79.43016,0,0,0,10.68517-39.92937Z" transform="translate(-0.00608 -0.97904)"/>
				<path class="cls-7" d="M412.07551,160.92288l-.08.00007L301.25135,225.01964a79.15786,79.15786,0,0,0-29.30555-29.25445L335.84905,84.83733a208.12529,208.12529,0,0,1,76.22646,76.08555Z" transform="translate(-0.00608 -0.97904)"/>
				<path class="cls-8" d="M335.986,84.99877,272.12709,195.8802a79.2536,79.2536,0,0,0-40.00666-10.78028l-.122-127.92A208.12464,208.12464,0,0,1,336.05524,84.95872Z" transform="translate(-0.00608 -0.97904)"/>
				<path class="cls-9" d="M231.95435,57.14525l.13729,127.95559A79.15765,79.15765,0,0,0,192.10377,195.853L127.98906,85.04721A208.12469,208.12469,0,0,1,231.99429,57.076Z" transform="translate(-0.00608 -0.97904)"/>
				<path class="cls-10" d="M24.08625,265.26152l127.92-.11163a78.98166,78.98166,0,0,0,10.83491,39.99058l-.08.00007L52.01694,369.15724A206.219,206.219,0,0,1,24.00625,265.26159Z" transform="translate(-0.00608 -0.97904)"/>
				<path class="cls-6" d="M301.32109,304.93964l110.85584,63.9033a206.73635,206.73635,0,0,1-76.09361,76.14645l-64.01667-110.7442A80.29205,80.29205,0,0,0,301.32109,304.93964Z" transform="translate(-0.00608 -0.97904)"/>
				<path class="cls-9" d="M272.06665,334.24519l64.01667,110.7442a205.41537,205.41537,0,0,1-103.89563,28.0107l-.1117-128A79.7271,79.7271,0,0,0,272.06665,334.24519Z" transform="translate(-0.00608 -0.97904)"/>
				<path class="cls-10" d="M440.00619,264.81858l.00007.08-128,.1117-.00007-.08a79.43,79.43,0,0,0-10.75484-39.91064l110.74414-64.09669.08-.00007a206.1587,206.1587,0,0,1,27.93068,103.8957Z" transform="translate(-0.00608 -0.97904)"/>
			</g>
			<g id="names">
				<g class="cls-11">
					<text class="cls-12" transform="translate(193.0688 153.23089) rotate(-15.05)">1</text>
				</g>
				<g class="cls-11">
					<text class="cls-12" transform="matrix(0.96615, 0.25798, -0.25798, 0.96615, 255.40024, 149.33526)">2</text>
				</g>
				<g class="cls-11">
					<text class="cls-12" transform="matrix(0.70772, 0.70649, -0.70649, 0.70772, 310.63804, 175.98073)">3</text>
				</g>
				<g class="cls-11">
					<text class="cls-12" transform="translate(343.03716 226.77284) rotate(74.95)">4</text>
				</g>
				<g class="cls-11">
					<text class="cls-12" transform="matrix(-0.25798, 0.96615, -0.96615, -0.25798, 347.26824, 288.48564)">5</text>
				</g>
				<g class="cls-11">
					<text class="cls-12" transform="matrix(-0.70649, 0.70772, -0.70772, -0.70649, 321.8674, 339.8272)">6</text>
				</g>
				<g class="cls-11">
					<text class="cls-12" transform="translate(268.97958 375.18334) rotate(164.95)">7</text>
				</g>
				<g class="cls-11">
					<text class="cls-12" transform="matrix(-0.96615, -0.25798, 0.25798, -0.96615, 209.24799, 379.34411)">8</text>
				</g>
				<g class="cls-11">
					<text class="cls-12" transform="matrix(-0.70772, -0.70649, 0.70649, -0.70772, 153.03827, 350.74015)">9</text>
				</g>
				<g class="cls-11">
					<text class="cls-12" transform="translate(122.71728 308.30936) rotate(-105.05)">10</text>
				</g>
				<g class="cls-11">
					<text class="cls-12" transform="matrix(0.25798, -0.96615, 0.96615, 0.25798, 115.66832, 246.55531)">11</text>
				</g>
				<g class="cls-11">
					<text class="cls-12" transform="matrix(0.70649, -0.70772, 0.70772, 0.70649, 138.24763, 192.60633)">12</text>
				</g>
			</g>
			<g id="balls">
				<path class="cls-1" d="M267.00015,264.02552a35.00007,35.00007,0,0,1-70.00007.06109v-.035a35,35,0,0,1,70.00007-.06108Z"/>
				<path class="cls-1" d="M417.66581,223.15a8.00012,8.00012,0,0,1-.102-15.99992l.088-.00008a8,8,0,1,1,.014,16Z" transform="translate(-0.00608 -0.97904)"/>
				<path class="cls-1" d="M46.83252,322.84974a8.00013,8.00013,0,0,1-.102-15.99993l.088-.00007a8,8,0,1,1,.014,16Z" transform="translate(-0.00608 -0.97904)"/>
				<path class="cls-1" d="M367.90267,137.11341a8.00013,8.00013,0,0,1-.10194-15.99993l.088-.00008a8,8,0,0,1,.014,16Z" transform="translate(-0.00608 -0.97904)"/>
				<path class="cls-1" d="M96.60364,408.88637a8.00012,8.00012,0,0,1-.102-15.99992l.088-.00008a8,8,0,1,1,.014,16Z" transform="translate(-0.00608 -0.97904)"/>
				<path class="cls-1" d="M281.78731,87.48452a8.00013,8.00013,0,0,1-.102-15.99993l.088-.00007a8,8,0,1,1,.014,16Z" transform="translate(-0.00608 -0.97904)"/>
				<path class="cls-1" d="M182.711,458.49925a8.00012,8.00012,0,0,1-.102-15.99992l.088-.00008a8,8,0,0,1,.014,16Z" transform="translate(-0.00608 -0.97904)"/>
				<path class="cls-1" d="M182.39531,87.57125a8.00012,8.00012,0,0,1-.102-15.99992l.088-.00008a8,8,0,1,1,.014,16Z" transform="translate(-0.00608 -0.97904)"/>
				<path class="cls-1" d="M282.103,458.41252a8.00013,8.00013,0,0,1-.102-15.99993l.088-.00007a8,8,0,1,1,.014,16Z" transform="translate(-0.00608 -0.97904)"/>
				<path class="cls-1" d="M96.36667,137.33437a8.00013,8.00013,0,0,1-.102-15.99993l.088-.00008a8,8,0,0,1,.014,16Z" transform="translate(-0.00608 -0.97904)"/>
				<path class="cls-1" d="M368.13963,408.64941a8.00012,8.00012,0,0,1-.10194-15.99992l.088-.00008a8,8,0,1,1,.014,16Z" transform="translate(-0.00608 -0.97904)"/>
				<path class="cls-1" d="M46.74578,223.45774a8.00013,8.00013,0,0,1-.102-15.99993l.088-.00007a8,8,0,1,1,.014,16Z" transform="translate(-0.00608 -0.97904)"/>
				<path class="cls-1" d="M417.76053,322.526a8.00012,8.00012,0,0,1-.102-15.99992l.088-.00008a8,8,0,1,1,.014,16Z" transform="translate(-0.00608 -0.97904)"/>
			</g>
		</g>
	</g>
	<text id="text-result" class="cls-12 cls-13" transform="translate(232.10000 273.00001)" text-anchor="middle"></text>
	<g transform="translate(-0.00608 -0.97904)">
		<path id="pointer" class="cls-13" d="M238.609,57.05332c-3.67588,4.72322-6.55309,7.92573-6.55309,7.92573s-2.8828-3.19749-6.64691-7.91421c-4.96545-6.23567-11.53334-15.26994-14.98018-23.10694A22.44359,22.44359,0,0,1,208.021,25a24,24,0,0,1,48-.04189,22.44331,22.44331,0,0,1-2.39217,8.9621C250.19567,41.7632,243.64356,50.80892,238.609,57.05332Z"/>
	</g>
</svg>
