<?xml version="1.0" encoding="UTF-8"?>
<svg width="512px" height="512px" viewBox="0 0 512 512" version="1.1" 
    xmlns="http://www.w3.org/2000/svg" 
    xmlns:xlink="http://www.w3.org/1999/xlink">
    <defs>
        <style type="text/css">
            @import url("https://fonts.googleapis.com/css?family=Rubik:400,700");
            #pointer{
                transform-origin: 256px 273.067px;
                transition: transform .1s ease-out;
            }
        </style>
    </defs>    
    <g id="speedometer">
        <circle id="Oval" fill="#40596B" fill-rule="nonzero" cx="256" cy="256" r="256"></circle>
        <circle id="Oval" fill="#F2F2F2" fill-rule="nonzero" cx="256" cy="256" r="216.533"></circle>
        <path d="M321.810576,429 L190.917995,429 C174.936867,429 162,416.026448 162,400 L162,400 C162,383.973552 174.936867,371 190.917995,371 L321.050045,371 C337.031174,371 349.968041,383.973552 349.968041,400 L349.968041,400 C350.729285,416.026448 337.791705,429 321.810576,429 Z" id="Path" fill="#CDD6E0" fill-rule="nonzero"></path>
        <text id="0-px/ms" fill="#40596B" font-family="Rubik-Bold, Rubik" font-size="24" font-weight="bold" x="321.224" y="408" text-anchor="end">
            <tspan id="text-speed">0</tspan>
            <tspan>px/s</tspan>
        </text>
        <path d="M256,54.4 L256,121.667 C218.667,121.667 187.6,135.6 163.067,160.134 L114.067,111.134 C150.333,73.8 200.533,54.4 256,54.4 Z" id="Path" fill="#FFD15C" fill-rule="nonzero"></path>
        <path d="M162.133,161.067 C137.6,185.6 122.666,218.667 122.666,254.934 L54.4,254.934 C54.4,199.467 76.8,148.267 113.067,112.001 L162.133,161.067 Z" id="Path" fill="#ACB3BA" fill-rule="nonzero"></path>
        <path d="M397.933,112.067 L349.933,160.067 C325.4,135.534 293.333,121.6 257.066,121.6 L257.066,54.4 C311.467,54.4 361.667,75.8 397.933,112.067 Z" id="Path" fill="#F8B64C" fill-rule="nonzero"></path>
        <path d="M458.6,255 L390.333,255 C390.333,217.667 375.4,184.6 350.866,161.133 L398.866,113.133 C436.2,148.333 458.6,199.533 458.6,255 Z" id="Path" fill="#FF7058" fill-rule="nonzero"></path>
        <path d="M458.6,256 C458.6,311.467 435.2,362.667 398.933,398.933 L350.933,350.933 C375.467,326.4 390.4,293.333 390.4,256 L458.6,256 Z" id="Path" fill="#F1543F" fill-rule="nonzero"></path>
        <path d="M162.133,349.867 L114.133,397.867 C76.8,362.667 54.4,311.467 54.4,256 L122.667,256 C122.667,293.333 137.6,326.4 162.133,349.867 Z" id="Path" fill="#CDD6E0" fill-rule="nonzero"></path>
        <g id="pointer"><path d="M146.935664,379.360596 C130.935664,388.960596 110.668664,383.627596 101.068664,367.627596 C91.468663,351.627596 96.801663,331.360596 112.801664,321.760596 C128.801664,312.160596 297.334664,249.227596 297.334664,249.227596 C297.334664,249.227596 162.935664,369.760596 146.935664,379.360596 Z" fill="#40596B" fill-rule="nonzero" transform="translate(196.811106, 316.684653) rotate(170.000000) translate(-196.811106, -316.684653) "></path></g>
        <circle id="Oval" fill="#FFFFFF" fill-rule="nonzero" cx="256" cy="273.067" r="14.933"></circle>
        <path d="M113.067,134.4 C149.333,98.133 200.533,75.733 256,75.733 C311.467,75.733 362.667,98.133 398.933,134.4 C433.066,168.533 454.4,215.467 457.6,266.667 C457.6,263.467 458.667,259.2 458.667,256 C458.667,200.533 435.986972,147.357779 399,113.067 C361.667,76.8 311.467,54.4 256,54.4 C200.533,54.4 149.604703,74.3058538 113.067,112.067 C76.5292973,149.828146 54.4,200.533 54.4,256 C54.4,259.2 54.4,263.467 55.467,266.667 C57.6,215.467 78.933,168.533 113.067,134.4 Z" id="Path" fill="#40596B" fill-rule="nonzero" opacity="0.15"></path>
    </g>
</svg>